<svg width="61" height="60" viewBox="0 0 61 60" fill="none" xmlns="http://www.w3.org/2000/svg">
<path d="M30.5 0C26.4947 0 22.5286 0.795238 18.8282 2.34031C15.1277 3.88538 11.7654 6.15003 8.93324 9.00495C3.21338 14.7707 0 22.5908 0 30.7448C0 44.334 8.7535 55.8633 20.862 59.9524C22.387 60.1983 22.875 59.2452 22.875 58.4151V53.2193C14.4265 55.064 12.627 49.0995 12.627 49.0995C11.224 45.5331 9.2415 44.58 9.2415 44.58C6.466 42.6738 9.455 42.7353 9.455 42.7353C12.505 42.9505 14.1215 45.902 14.1215 45.902C16.775 50.5752 21.2585 49.1917 22.997 48.4538C23.2715 46.4554 24.0645 45.1026 24.9185 44.334C18.1475 43.5654 11.041 40.9213 11.041 29.2076C11.041 25.7949 12.2 23.0586 14.1825 20.8757C13.8775 20.1071 12.81 16.9096 14.4875 12.7591C14.4875 12.7591 17.0495 11.929 22.875 15.8951C25.2845 15.2187 27.9075 14.8805 30.5 14.8805C33.0925 14.8805 35.7155 15.2187 38.125 15.8951C43.9505 11.929 46.5125 12.7591 46.5125 12.7591C48.19 16.9096 47.1225 20.1071 46.8175 20.8757C48.8 23.0586 49.959 25.7949 49.959 29.2076C49.959 40.9521 42.822 43.5347 36.0205 44.3033C37.1185 45.2564 38.125 47.1318 38.125 49.9911V58.4151C38.125 59.2452 38.613 60.2291 40.1685 59.9524C52.277 55.8326 61 44.334 61 30.7448C61 26.7073 60.2111 22.7094 58.6783 18.9793C57.1456 15.2491 54.8989 11.8599 52.0668 9.00495C49.2346 6.15003 45.8723 3.88538 42.1718 2.34031C38.4714 0.795238 34.5053 0 30.5 0Z" fill="#6F4926"/>
</svg>
