<svg width="60" height="60" viewBox="0 0 60 60" fill="none" xmlns="http://www.w3.org/2000/svg">
<path fill-rule="evenodd" clip-rule="evenodd" d="M47.7458 26.5955C38.0756 20.8526 22.1247 20.3246 12.8933 23.1263C11.4106 23.5763 9.84291 22.7394 9.39404 21.2571C8.94481 19.7736 9.78058 18.207 11.264 17.7564C21.8614 14.5398 39.4773 15.1609 50.6099 21.7693C51.9436 22.561 52.3807 24.2831 51.5904 25.6143C50.7994 26.9476 49.0759 27.3872 47.7458 26.5955ZM47.4291 35.1015C46.7506 36.2023 45.3112 36.5477 44.2118 35.8717C36.15 30.9162 23.8561 29.4804 14.318 32.3756C13.0814 32.7493 11.7749 32.0522 11.3991 30.8173C11.0265 29.5807 11.724 28.2767 12.9589 27.9006C23.8546 24.594 37.3999 26.1953 46.6596 31.8859C47.7591 32.563 48.1051 34.0031 47.4291 35.1015ZM43.7583 43.2703C43.2191 44.1545 42.0681 44.4314 41.1872 43.8926C34.1425 39.587 25.2754 38.6147 14.8328 40.9998C13.8265 41.2305 12.8234 40.6 12.5942 39.5941C12.3635 38.5878 12.9918 37.5848 14.0003 37.3551C25.428 34.7429 35.2304 35.867 43.1378 40.6989C44.0194 41.2374 44.2971 42.3891 43.7583 43.2703ZM29.9998 0C13.4317 0 0 13.4314 0 29.9995C0 46.5693 13.4317 60 29.9998 60C46.5686 60 60 46.5693 60 29.9995C60 13.4314 46.5686 0 29.9998 0Z" fill="#6F4926"/>
</svg>
