<svg width="231" height="52" viewBox="0 0 231 52" fill="none" xmlns="http://www.w3.org/2000/svg">
<path d="M0 20C0 8.9543 8.9543 0 20 0H211C222.046 0 231 8.95431 231 20V40C231 51.0457 222.046 60 211 60H20C8.95431 60 0 51.0457 0 40V20Z" fill="#6F4926"/>
<path d="M32.4805 34.417L36.6699 20.5156H40.9102L34.4736 39H30.5L24.0889 20.5156H28.3164L32.4805 34.417ZM46.7119 39H42.9033V20.5156H46.7119V39ZM61.375 30.9893H54.0625V35.9404H62.6445V39H50.2539V20.5156H62.6191V23.6006H54.0625V28.0059H61.375V30.9893ZM79.2754 33.668L81.7637 20.5156H85.5596L81.459 39H77.625L74.6162 26.6348L71.6074 39H67.7734L63.6729 20.5156H67.4688L69.9697 33.6426L73.0166 20.5156H76.2412L79.2754 33.668ZM99.0801 20.5156L103.828 33.9219L108.551 20.5156H113.553V39H109.731V33.9473L110.112 25.2256L105.123 39H102.508L97.5312 25.2383L97.9121 33.9473V39H94.1035V20.5156H99.0801ZM122.896 28.8438L126.743 20.5156H130.907L124.839 32.2969V39H120.967V32.2969L114.898 20.5156H119.075L122.896 28.8438ZM153.581 32.8428C153.437 34.8317 152.701 36.3975 151.372 37.54C150.052 38.6826 148.308 39.2539 146.142 39.2539C143.772 39.2539 141.906 38.4583 140.543 36.8672C139.189 35.2676 138.512 33.0755 138.512 30.291V29.1611C138.512 27.3838 138.825 25.818 139.451 24.4639C140.077 23.1097 140.97 22.0729 142.13 21.3535C143.298 20.6257 144.652 20.2617 146.192 20.2617C148.325 20.2617 150.043 20.833 151.347 21.9756C152.65 23.1182 153.403 24.722 153.606 26.7871H149.798C149.705 25.5938 149.37 24.7305 148.795 24.1973C148.228 23.6556 147.36 23.3848 146.192 23.3848C144.923 23.3848 143.971 23.8418 143.336 24.7559C142.71 25.6615 142.388 27.0706 142.371 28.9834V30.3799C142.371 32.3773 142.672 33.8372 143.272 34.7598C143.882 35.6823 144.838 36.1436 146.142 36.1436C147.318 36.1436 148.194 35.877 148.77 35.3438C149.354 34.8021 149.688 33.9684 149.772 32.8428H153.581ZM162.912 34.417L167.102 20.5156H171.342L164.905 39H160.932L154.521 20.5156H158.748L162.912 34.417Z" fill="#F8F3DB"/>
<path d="M212.707 30.7071C213.098 30.3166 213.098 29.6834 212.707 29.2929L206.343 22.9289C205.953 22.5384 205.319 22.5384 204.929 22.9289C204.538 23.3195 204.538 23.9526 204.929 24.3431L210.586 30L204.929 35.6569C204.538 36.0474 204.538 36.6805 204.929 37.0711C205.319 37.4616 205.953 37.4616 206.343 37.0711L212.707 30.7071ZM188 31L212 31V29L188 29V31Z" fill="#F8F3DB"/>
</svg>
