<svg width="60" height="60" viewBox="0 0 60 60" fill="none" xmlns="http://www.w3.org/2000/svg">
<path fill-rule="evenodd" clip-rule="evenodd" d="M30 0C13.4315 0 0 13.4315 0 30C0 46.5685 13.4315 60 30 60C46.5685 60 60 46.5685 60 30C60 13.4315 46.5685 0 30 0ZM18.6314 13H42.3686C44.3703 13 46 14.61 46 16.605V48L42.1914 44.675L40.048 42.715L37.7806 40.6325L38.7194 43.87H18.6314C16.6297 43.87 15 42.26 15 40.265V16.605C15 14.61 16.6297 13 18.6314 13Z" fill="#6F4926"/>
<path fill-rule="evenodd" clip-rule="evenodd" d="M35.5309 35.855C35.5309 35.855 34.8931 35.1025 34.3617 34.4375C36.6823 33.79 37.568 32.355 37.568 32.355C36.8417 32.8275 36.1509 33.16 35.5309 33.3875C34.6451 33.755 33.7949 34 32.9623 34.14C31.2617 34.455 29.7029 34.3675 28.3743 34.1225C27.3646 33.93 26.4966 33.65 25.7703 33.37C25.3629 33.2125 24.92 33.02 24.4771 32.775C24.4506 32.7575 24.424 32.7444 24.3974 32.7312C24.3709 32.7181 24.3443 32.705 24.3177 32.6875C24.2823 32.67 24.2646 32.6525 24.2469 32.635C23.928 32.46 23.7509 32.3375 23.7509 32.3375C23.7509 32.3375 24.6011 33.7375 26.8509 34.4025C26.3194 35.0675 25.664 35.855 25.664 35.855C21.7491 35.7325 20.2611 33.195 20.2611 33.195C20.2611 27.56 22.812 22.9925 22.812 22.9925C25.3629 21.1025 27.7897 21.155 27.7897 21.155L27.9669 21.365C24.7783 22.275 23.308 23.6575 23.308 23.6575C23.308 23.6575 23.6977 23.4475 24.3531 23.15C26.2486 22.3275 27.7543 22.1 28.3743 22.0475L28.414 22.0409C28.5034 22.0258 28.5826 22.0125 28.6754 22.0125C29.756 21.8725 30.9783 21.8375 32.2537 21.9775C33.9366 22.17 35.7434 22.66 37.5857 23.6575C37.5857 23.6575 36.1863 22.345 33.1749 21.435L33.4229 21.155C33.4229 21.155 35.8497 21.1025 38.4006 22.9925C38.4006 22.9925 40.9514 27.56 40.9514 33.195C40.9514 33.195 39.4457 35.7325 35.5309 35.855ZM27.7926 28C26.7909 28 26 28.9009 26 30C26 31.0991 26.8084 32 27.7926 32C28.7944 32 29.5852 31.0991 29.5852 30C29.6028 28.9009 28.7944 28 27.7926 28ZM32.4148 30C32.4148 28.9009 33.2056 28 34.2074 28C35.2091 28 36 28.9009 36 30C36 31.0991 35.2091 32 34.2074 32C33.2232 32 32.4148 31.0991 32.4148 30Z" fill="#6F4926"/>
</svg>
